<svg width="35" height="35" viewBox="0 0 35 35" fill="none" xmlns="http://www.w3.org/2000/svg">
<path fill-rule="evenodd" clip-rule="evenodd" d="M35 32.5255L32.5255 35L22.6258 25.1003L25.1003 22.6258L35 32.5255ZM12.25 21C7.42526 21 3.50001 17.0747 3.50001 12.25C3.50001 7.42525 7.42526 3.5 12.25 3.5C17.0748 3.5 21 7.42525 21 12.25C21 17.0747 17.0748 21 12.25 21ZM12.25 0C5.48451 0 0 5.4845 0 12.25C0 19.0155 5.48451 24.5 12.25 24.5C19.0155 24.5 24.5 19.0155 24.5 12.25C24.5 5.4845 19.0155 0 12.25 0Z" fill="black"/>
</svg>
